<svg width="35" height="35" viewBox="0 0 35 35" fill="none" xmlns="http://www.w3.org/2000/svg">
<g clip-path="url(#clip0_79_4748)">
<g clip-path="url(#clip1_79_4748)">
<g clip-path="url(#clip2_79_4748)">
<g clip-path="url(#clip3_79_4748)">
<path d="M34.3998 23.8178C34.3998 22.5361 33.5744 21.4537 32.4311 21.046V10.8482L34.3998 10.0365L17.5998 3.2959L0.799805 10.0365L17.5998 16.7772L30.4623 11.6387V21.046C29.319 21.4537 28.4936 22.5361 28.4936 23.8178C28.4936 24.9911 29.1866 25.9983 30.1802 26.4743L28.5445 31.3813L30.4114 32.0042L31.4467 28.8983L32.482 32.0042L34.3488 31.3813L32.7132 26.4743C33.7068 25.9984 34.3998 24.9912 34.3998 23.8178Z" fill="white"/>
</g>
</g>
<g clip-path="url(#clip4_79_4748)">
<g clip-path="url(#clip5_79_4748)">
<path d="M17.6001 18.8987L8.74072 15.3413V17.9114C8.74072 20.7175 12.5494 22.8333 17.6001 22.8333C22.6508 22.8333 26.4595 20.7175 26.4595 17.9114V15.3413L17.6001 18.8987Z" fill="white"/>
</g>
</g>
</g>
</g>
<defs>
<clipPath id="clip0_79_4748">
<rect width="33.6" height="33.6" fill="white" transform="translate(0.799805 0.850098)"/>
</clipPath>
<clipPath id="clip1_79_4748">
<rect width="33.6" height="33.6" fill="white" transform="translate(0.799805 0.850098)"/>
</clipPath>
<clipPath id="clip2_79_4748">
<rect width="33.6" height="28.7083" fill="white" transform="translate(0.799805 3.2959)"/>
</clipPath>
<clipPath id="clip3_79_4748">
<rect width="33.6" height="28.7083" fill="white" transform="translate(0.799805 3.2959)"/>
</clipPath>
<clipPath id="clip4_79_4748">
<rect width="17.7188" height="7.49201" fill="white" transform="translate(8.74072 15.3413)"/>
</clipPath>
<clipPath id="clip5_79_4748">
<rect width="17.7188" height="7.49201" fill="white" transform="translate(8.74072 15.3413)"/>
</clipPath>
</defs>
</svg>
